<?xml version="1.0" encoding="UTF-8" standalone="no"?>
<!-- Created with Inkscape (http://www.inkscape.org/) -->

<svg
   width="242mm"
   height="52mm"
   viewBox="0 0 242 52"
   version="1.1"
   id="svg1"
   sodipodi:docname="green_line.svg"
   inkscape:version="1.3.2 (091e20e, 2023-11-25, custom)"
   xmlns:inkscape="http://www.inkscape.org/namespaces/inkscape"
   xmlns:sodipodi="http://sodipodi.sourceforge.net/DTD/sodipodi-0.dtd"
   xmlns="http://www.w3.org/2000/svg"
   xmlns:svg="http://www.w3.org/2000/svg">
  <sodipodi:namedview
     id="namedview1"
     pagecolor="#ffffff"
     bordercolor="#000000"
     borderopacity="0.25"
     inkscape:showpageshadow="2"
     inkscape:pageopacity="0.0"
     inkscape:pagecheckerboard="0"
     inkscape:deskcolor="#d1d1d1"
     inkscape:document-units="mm"
     inkscape:zoom="0.72248176"
     inkscape:cx="396.5498"
     inkscape:cy="451.91452"
     inkscape:window-width="1920"
     inkscape:window-height="1046"
     inkscape:window-x="1909"
     inkscape:window-y="-5"
     inkscape:window-maximized="1"
     inkscape:current-layer="layer1"
     inkscape:clip-to-page="false" />
  <defs
     id="defs1" />
  <g
     inkscape:label="Ebene 1"
     inkscape:groupmode="layer"
     id="layer1">
    <path
       style="fill:#00ff00;stroke-width:0.264583"
       id="path1"
       d="m 1.5724709,17.875967 c 0.2290372,-0.0219 0.4570971,-0.0602 0.6871116,-0.0656 0.9342937,-0.0219 2.4636771,0.0703 3.3116132,0.115 2.4466703,0.12902 4.8925833,0.27402 7.3390403,0.4072 3.248416,0.21419 6.496052,0.3745 9.745985,0.13844 1.446821,-0.0326 2.954218,-0.17808 4.381948,0.15195 0.852283,0.19702 1.35435,0.45853 2.166746,0.80637 -0.72094,-0.39619 -1.365736,-0.98515 -2.162819,-1.18857 -0.428262,-0.10929 0.678848,0.56892 0.984766,0.88793 0.283946,0.29609 0.543156,0.61704 0.779803,0.95214 0.685709,0.97101 1.129127,2.0834 1.571841,3.17612 0.711766,2.01759 1.094767,4.12982 1.786835,6.15335 0.463116,1.34477 0.822859,2.71932 1.586698,3.93614 0.663337,1.05672 1.071171,1.44976 1.902462,2.41247 2.521382,2.42567 5.211906,4.6808 8.039984,6.74032 2.873732,1.94733 5.862148,3.86309 9.138208,5.05851 1.565683,0.57132 2.060504,0.63244 3.693893,1.011 1.425678,0.19765 2.645746,0.42299 4.096705,0.39142 2.856108,-0.0622 5.606233,-0.97946 8.270531,-1.91775 2.856516,-1.01577 5.366258,-2.70418 7.703497,-4.59926 0.508614,-0.44347 1.020069,-0.8837 1.525842,-1.33041 1.116621,-0.98621 2.520267,-2.29327 3.693562,-3.19899 2.292202,-1.76945 4.783399,-3.21833 7.285392,-4.66153 4.030609,-2.27742 8.204714,-4.27755 12.369795,-6.29253 4.64475,-2.43372 9.80968,-3.53898 14.93669,-4.42054 1.71283,-0.271 3.3711,-0.25625 5.02383,0.28698 0.4102,0.13483 1.56222,0.72325 1.1996,0.48884 -3.80559,-2.46011 -2.35386,-1.25633 -1.39009,-0.35952 0.23861,0.31275 0.50219,0.60794 0.71584,0.93825 0.85846,1.3272 1.40921,2.88176 2.27504,4.25049 1.40292,2.21775 1.80315,2.53259 3.55772,4.59645 2.16266,2.32811 4.47531,4.52729 7.09702,6.33737 2.12723,1.46868 6.38024,3.72965 8.15602,4.59658 0.83217,0.40626 1.72987,0.66162 2.5948,0.99243 4.52684,1.38702 9.31192,2.10466 14.05307,1.82834 0.99439,-0.058 1.98234,-0.19746 2.97351,-0.29619 6.2964,-1.01596 12.09373,-3.76265 17.70686,-6.67082 3.76191,-2.05856 7.70949,-3.74688 11.5161,-5.71743 0.0945,-0.0489 4.50992,-2.43368 4.71639,-2.54517 2.8802,-1.47879 5.50978,-3.37364 7.69508,-5.77377 1.08178,-1.18812 2.58323,-3.18827 3.56563,-4.46229 1.74496,-2.19146 3.27846,-4.65794 5.69722,-6.1861 1.34693,-0.85098 2.52714,-1.28502 3.99628,-1.91825 4.19145,-1.768049 8.68718,-2.538059 13.08597,-3.5951891 3.2468,-0.84939 6.49214,-1.72703 9.673,-2.80014 1.13185,-0.35867 2.20312,-0.85976 3.26249,-1.38809 0,0 -3.221,-2.1186 -3.221,-2.1186 v 0 c -1.037,0.52389 -2.09019,1.00677 -3.1972,1.3689 -3.15236,1.08911 -6.36931,1.98112 -9.59879,2.81042 -4.38849,1.0989 -8.86626,1.92902 -13.05949,3.6863101 -1.49964,0.635329 -2.7365,1.077419 -4.10492,1.956019 -2.43539,1.56365 -3.89928,4.10779 -5.63763,6.33728 -1.14351,1.48711 -2.27556,3.03286 -3.55975,4.40616 -2.19429,2.34654 -4.83957,4.15903 -7.65148,5.6834 -2.37553,1.31292 -4.75312,2.61352 -7.17614,3.83764 -5.47565,2.76631 -0.11494,0.021 -5.89937,2.89772 -1.03137,0.51292 -2.0531,1.04501 -3.07964,1.56752 -5.59945,2.87274 -11.3658,5.61588 -17.65473,6.54151 -0.986,0.0901 -1.96907,0.22218 -2.95801,0.27023 -4.72806,0.22972 -9.49427,-0.51994 -13.99089,-1.95387 -0.85743,-0.33801 -1.67525,-0.80243 -2.57228,-1.01404 -0.25471,-0.0601 0.80199,0.65968 0.56856,0.54138 -3.73748,-1.89409 -6.83011,-4.83319 -9.7008,-7.82333 -1.67095,-1.95342 -2.15622,-2.35936 -3.46915,-4.47683 -0.84204,-1.35803 -1.33227,-2.87619 -2.13927,-4.24314 -0.20614,-0.34916 -0.46299,-0.66577 -0.69449,-0.99865 -0.28791,-0.29604 -0.52079,-0.65806 -0.86373,-0.88811 -2.0704,-1.38886 -4.33587,-3.02656 -6.92587,-3.29838 -1.41714,-0.14873 -2.14177,0.0329 -3.58499,0.21028 -5.14122,1.00109 -10.36506,2.07687 -15.075121,4.44986 -4.125374,2.05388 -8.237867,4.13606 -12.253525,6.39908 -2.512047,1.46519 -5.037079,2.92707 -7.360092,4.68709 -0.896876,0.67952 -2.869334,2.41666 -3.754763,3.16463 -0.515627,0.43558 -1.039357,0.86148 -1.559036,1.29222 -2.357151,1.78906 -4.798708,3.49763 -7.602656,4.519 -1.96437,0.69389 -3.936153,1.36407 -6.012201,1.648 -2.09264,0.2862 -4.168503,0.10755 -6.231911,-0.29728 -1.655821,-0.41203 -2.087711,-0.46501 -3.671078,-1.07126 -0.564407,-0.2161 -1.680001,-1.32256 -1.6647,-0.71839 0.01677,0.66281 1.200594,0.61023 1.673725,1.07471 0.754705,0.7409 -3.467973,-2.24036 -2.68079,-1.69706 -2.844173,-2.03069 -5.533697,-4.27218 -8.081574,-6.66421 -0.811241,-0.91686 -1.227336,-1.31636 -1.887508,-2.31891 -0.779558,-1.18386 -1.134031,-2.53082 -1.577578,-3.86046 -0.736703,-2.02291 -1.126728,-4.14447 -1.81727,-6.18191 -0.579305,-1.53139 -1.204949,-3.03732 -2.297059,-4.28572 -0.297045,-0.33956 -0.574149,-0.71509 -0.951169,-0.96286 -1.419244,-0.93269 -2.937475,-1.70525 -4.406212,-2.55788 -0.932495,-0.36843 -1.28848,-0.56389 -2.252707,-0.74709 -1.442421,-0.27406 -2.94213,-0.12198 -4.3944,-0.0661 -3.199263,0.20262 -6.397135,0.0938 -9.596276,-0.0857 -2.462488,-0.12715 -4.92204,-0.27634 -7.3822795,-0.44115 -0.9403945,-0.063 -2.47857725,-0.19478 -3.49163675,-0.1685 -0.25917905,0.007 -0.51515005,0.0591 -0.77272505,0.0887 z" />
    <circle
       id="path2"
       style="fill:#00ff00;stroke:#000000;stroke-width:0.264583"
       cx="116.82244"
       cy="51.636253"
       r="0.024389889" />
  </g>
</svg>
